<?xml version="1.0" encoding="UTF-8" standalone="no"?>
<svg
   width="260.39951pt"
   height="118pt"
   viewBox="0 0 260.39952 118"
   version="1.1"
   id="svg349"
   sodipodi:docname="angular_profiles.svg"
   inkscape:version="1.2.2 (b0a8486541, 2022-12-01)"
   xmlns:inkscape="http://www.inkscape.org/namespaces/inkscape"
   xmlns:sodipodi="http://sodipodi.sourceforge.net/DTD/sodipodi-0.dtd"
   xmlns:xlink="http://www.w3.org/1999/xlink"
   xmlns="http://www.w3.org/2000/svg"
   xmlns:svg="http://www.w3.org/2000/svg"
   xmlns:rdf="http://www.w3.org/1999/02/22-rdf-syntax-ns#"
   xmlns:cc="http://creativecommons.org/ns#"
   xmlns:dc="http://purl.org/dc/elements/1.1/">
  <sodipodi:namedview
     id="namedview351"
     pagecolor="#ffffff"
     bordercolor="#000000"
     borderopacity="0.25"
     inkscape:showpageshadow="2"
     inkscape:pageopacity="0.0"
     inkscape:pagecheckerboard="0"
     inkscape:deskcolor="#d1d1d1"
     inkscape:document-units="pt"
     showgrid="false"
     inkscape:zoom="1.9183701"
     inkscape:cx="170.4572"
     inkscape:cy="127.97322"
     inkscape:window-width="1854"
     inkscape:window-height="1011"
     inkscape:window-x="66"
     inkscape:window-y="32"
     inkscape:window-maximized="1"
     inkscape:current-layer="svg349" />
  <metadata
     id="metadata2">
    <rdf:RDF>
      <cc:Work>
        <dc:type
           rdf:resource="http://purl.org/dc/dcmitype/StillImage" />
        <dc:date>2026-03-07T22:49:12.871299</dc:date>
        <dc:format>image/svg+xml</dc:format>
        <dc:creator>
          <cc:Agent>
            <dc:title>Matplotlib v3.8.4, https://matplotlib.org/</dc:title>
          </cc:Agent>
        </dc:creator>
      </cc:Work>
    </rdf:RDF>
  </metadata>
  <defs
     id="defs6">
    <style
       type="text/css"
       id="style4">*{stroke-linejoin: round; stroke-linecap: butt}</style>
    <defs
       id="defs312">
      <path
         id="CMR17-43"
         d="m 3974,4289 c 0,114 -6,121 -44,121 -26,0 -32,-7 -77,-83 l -282,-535 c -313,395 -697,624 -1190,624 -1095,0 -2087,-960 -2087,-2268 0,-1322 992,-2276 2093,-2276 979,0 1587,858 1587,1589 0,63 0,89 -57,89 -51,0 -51,-19 -58,-76 C 3808,585 3168,38 2477,38 1824,38 781,495 781,2147 c 0,1658 1062,2103 1683,2103 723,0 1248,-622 1370,-1505 12,-77 12,-90 70,-90 70,0 70,13 70,128 z"
         transform="scale(0.015625)" />
      <path
         id="CMR17-61"
         d="m 2304,1653 c 0,419 0,641 -269,890 -237,209 -512,273 -729,273 -506,0 -871,-409 -871,-845 0,-243 192,-243 231,-243 83,0 230,50 230,226 0,158 -122,227 -230,227 -26,0 -58,-7 -77,-13 134,424 480,546 704,546 320,0 672,-285 672,-829 V 1600 C 1587,1600 1133,1549 774,1357 371,1133 256,813 256,570 256,77 832,-64 1171,-64 c 352,0 679,203 819,575 13,-278 192,-529 474,-529 134,0 474,88 474,585 V 920 H 2822 V 562 c 0,-384 -172,-434 -256,-434 -262,0 -262,330 -262,610 z M 1965,870 C 1965,317 1568,38 1216,38 896,38 646,275 646,570 c 0,191 84,530 455,735 307,173 659,199 864,199 z"
         transform="scale(0.015625)" />
      <path
         id="CMR17-6b"
         d="m 1670,1673 c -6,13 -38,51 -38,70 0,13 454,428 512,479 365,306 595,338 762,338 v 173 c -39,0 -52,0 -58,-13 h -314 c -179,0 -454,0 -627,13 v -167 c 90,-7 154,-58 154,-147 0,-128 -128,-249 -135,-249 L 960,1289 v 3107 l -762,-70 v -166 c 378,0 436,-38 436,-343 V 426 C 634,184 608,153 198,153 V -13 C 352,0 634,0 794,0 c 160,0 441,0 595,-13 v 166 c -410,0 -435,25 -435,275 v 702 l 441,402 647,-958 c 76,-115 140,-205 140,-288 0,-114 -115,-133 -192,-133 V -13 c 154,13 429,13 589,13 115,0 352,0 461,0 v 153 c -301,0 -371,57 -563,338 z"
         transform="scale(0.015625)" />
      <path
         id="CMR17-65"
         d="m 2438,1472 c 26,26 26,39 26,104 0,662 -346,1240 -1075,1240 C 710,2816 173,2169 173,1383 173,551 781,-64 1459,-64 c 717,0 999,671 999,804 0,44 -39,44 -52,44 -44,0 -51,-13 -76,-88 C 2189,265 1837,51 1504,51 1229,51 954,203 781,480 582,803 582,1176 582,1472 Z m -1849,96 c 45,937 537,1146 793,1146 436,0 730,-417 736,-1146 z"
         transform="scale(0.015625)" />
      <path
         id="CMR17-77"
         d="m 3725,2183 c 128,377 384,377 480,377 v 172 c -128,0 -256,0 -384,0 -122,0 -397,0 -506,6 v -178 c 199,0 307,-115 307,-274 0,-45 -12,-102 -25,-146 L 2995,407 2342,2275 c -12,44 -32,95 -32,120 0,165 218,165 320,165 v 178 c -147,-6 -416,-6 -569,-6 -160,0 -327,0 -474,6 v -178 c 352,0 352,-13 487,-411 L 1485,451 851,2281 c -32,82 -32,95 -32,114 0,165 218,165 320,165 v 178 c -153,-6 -422,-6 -582,-6 -141,0 -359,0 -493,6 v -178 c 282,0 352,-19 422,-229 L 1274,49 c 25,-82 44,-101 96,-101 44,0 70,13 102,108 L 2131,1980 2797,56 c 32,-95 57,-108 102,-108 51,0 71,19 96,102 z"
         transform="scale(0.015625)" />
      <path
         id="CMR17-76"
         d="m 2502,2163 c 58,141 160,397 532,397 v 166 c -122,0 -282,0 -404,0 -134,0 -345,0 -473,6 v -166 c 160,-13 249,-89 249,-255 0,-58 0,-71 -38,-160 L 1664,377 902,2286 c -38,83 -38,95 -38,121 0,153 211,153 307,153 v 172 c -153,-6 -435,-6 -595,-6 -173,0 -371,0 -512,6 v -172 c 243,0 378,0 454,-198 L 1446,44 c 39,-95 45,-108 103,-108 57,0 64,13 102,108 z"
         transform="scale(0.015625)" />
      <path
         id="CMR17-6c"
         d="m 979,4396 -761,-70 v -166 c 377,0 435,-38 435,-343 V 426 C 653,184 627,153 218,153 V -13 C 371,0 653,0 813,0 c 166,0 448,0 601,-13 v 166 c -409,0 -435,25 -435,273 z"
         transform="scale(0.015625)" />
      <path
         id="CMR17-74"
         d="m 966,2560 h 896 v 165 H 966 V 3904 H 851 C 838,3245 614,2668 70,2668 V 2560 H 627 V 771 c 0,-121 0,-835 743,-835 377,0 595,370 595,841 v 363 H 1850 V 783 C 1850,344 1677,51 1408,51 1222,51 966,178 966,758 Z"
         transform="scale(0.015625)" />
    </defs>
  </defs>
  <rect
     style="fill:#ffffff;stroke-width:0.3;stroke-linecap:round"
     id="rect2077"
     width="260.39951"
     height="118"
     x="0"
     y="0" />
  <path
     d="m 110.67101,59.541716 c 0,-5.299311 -1.04385,-10.547092 -3.07181,-15.443016 -2.02796,-4.895924 -5.00059,-9.34478 -8.747765,-13.091957 -3.747179,-3.747179 -8.196033,-6.719809 -13.091958,-8.747767 -4.895924,-2.027959 -10.143706,-3.071807 -15.443017,-3.071807 -5.29931,0 -10.547092,1.043849 -15.443016,3.071807 -4.895925,2.027958 -9.344779,5.000588 -13.091958,8.747767 -3.747178,3.747177 -6.719808,8.196033 -8.747766,13.091957 -2.027959,4.895924 -3.071807,10.143706 -3.071807,15.443016 0,5.299311 1.043848,10.547092 3.071807,15.443017 2.027958,4.895924 5.000588,9.344783 8.747766,13.091953 3.747179,3.74718 8.196033,6.71981 13.091958,8.74777 4.895924,2.027961 10.143706,3.07181 15.443016,3.07181 5.299311,0 10.547093,-1.04385 15.443017,-3.07181 4.895925,-2.02796 9.344779,-5.00059 13.091958,-8.74777 3.747175,-3.74717 6.719805,-8.196029 8.747765,-13.091953 2.02796,-4.895925 3.07181,-10.143706 3.07181,-15.443017 m -40.35455,0 c 0,0 0,0 0,0 0,0 0,0 0,0 0,0 0,0 0,0 0,0 0,0 0,0 0,0 0,0 0,0 0,0 0,0 0,0 0,0 0,0 0,0 0,0 0,0 0,0 0,0 0,0 0,0 0,0 0,0 0,0 0,0 0,0 0,0 0,0 0,0 0,0 0,0 0,0 0,0 0,0 0,0 0,0 0,0 0,0 0,0 0,0 0,0 0,0 z"
     style="fill:#ffffff"
     id="path11" />
  <path
     d="M 69.316851,78.08 H 109.6714"
     clip-path="url(#pd8b268611b)"
     style="fill:none;stroke:#b0b0b0;stroke-width:0.8;stroke-linecap:square"
     id="path14"
     transform="translate(0.99960863,-18.538283)" />
  <g
     transform="matrix(0.08,0,0,-0.08,121.14289,61.534244)"
     id="g25">
    <defs
       id="defs19">
      <path
         id="CMR17-30"
         d="m 2688,2025 c 0,391 -6,1055 -275,1566 -237,448 -615,607 -947,607 -308,0 -698,-140 -941,-601 C 269,3118 243,2524 243,2025 c 0,-364 7,-919 205,-1406 275,-658 768,-747 1018,-747 294,0 742,121 1004,728 192,442 218,959 218,1425 z M 1466,-26 c -410,0 -653,351 -743,838 -70,376 -70,926 -70,1284 0,492 0,901 83,1291 122,542 480,709 730,709 262,0 601,-173 723,-696 83,-364 89,-793 89,-1304 0,-416 0,-927 -76,-1304 C 2067,95 1690,-26 1466,-26 Z"
         transform="scale(0.015625)" />
      <path
         id="SFRM3583-b0"
         d="m 890,4416 c -346,-45 -564,-336 -564,-640 0,-323 250,-640 634,-640 h 58 c 339,45 569,336 569,640 0,329 -275,640 -640,640 z M 525,3737 v 39 c 0,227 198,428 422,428 231,0 391,-178 435,-389 v -39 c 0,-231 -198,-435 -422,-435 -230,0 -390,181 -435,396 z"
         transform="scale(0.015625)" />
    </defs>
    <use
       xlink:href="#CMR17-30"
       transform="scale(0.996264)"
       id="use21" />
    <use
       xlink:href="#SFRM3583-b0"
       transform="matrix(0.356961,0,0,0.356961,45.690477,0)"
       id="use23" />
  </g>
  <path
     d="M 69.316851,78.08 97.851826,49.545026"
     clip-path="url(#pd8b268611b)"
     style="fill:none;stroke:#b0b0b0;stroke-width:0.8;stroke-linecap:square"
     id="path29"
     transform="translate(0.99960863,-18.538283)" />
  <g
     transform="matrix(0.08,0,0,-0.08,103.10572,23.099775)"
     id="g42">
    <defs
       id="defs34">
      <path
         id="CMR17-34"
         d="m 2150,4122 c 0,134 -6,134 -121,134 L 128,1254 V 1088 H 1779 V 457 c 0,-233 -13,-297 -461,-297 H 1197 V 0 c 205,0 550,0 768,0 217,0 563,0 768,0 v 160 h -122 c -448,0 -461,64 -461,297 v 631 h 653 v 166 H 2150 Z M 1798,3703 V 1254 H 256 Z"
         transform="scale(0.015625)" />
      <path
         id="CMR17-35"
         d="m 730,3692 c 64,-26 326,-108 595,-108 595,0 921,327 1107,516 0,57 0,92 -38,92 -7,0 -20,0 -71,-29 -224,-105 -486,-190 -806,-190 -192,0 -480,26 -794,166 -70,32 -83,32 -89,32 -32,0 -39,-7 -39,-134 V 2203 c 0,-114 0,-146 64,-146 32,0 45,13 77,57 205,287 486,408 806,408 224,0 704,-140 704,-1233 0,-204 0,-574 -192,-868 C 1894,159 1645,25 1370,25 947,25 518,320 403,814 c 26,-7 77,-19 103,-19 83,0 243,45 243,243 0,172 -122,242 -243,242 -148,0 -244,-90 -244,-269 0,-557 442,-1139 1120,-1139 660,0 1287,568 1287,1392 0,766 -499,1360 -1120,1360 -327,0 -602,-121 -819,-350 z"
         transform="scale(0.015625)" />
    </defs>
    <use
       xlink:href="#CMR17-34"
       transform="scale(0.996264)"
       id="use36" />
    <use
       xlink:href="#CMR17-35"
       transform="matrix(0.996264,0,0,0.996264,45.690477,0)"
       id="use38" />
    <use
       xlink:href="#SFRM3583-b0"
       transform="matrix(0.356961,0,0,0.356961,91.380954,0)"
       id="use40" />
  </g>
  <path
     d="M 69.316851,78.08 V 37.725452"
     clip-path="url(#pd8b268611b)"
     style="fill:none;stroke:#b0b0b0;stroke-width:0.8;stroke-linecap:square"
     id="path46"
     transform="translate(0.99960863,-18.538283)" />
  <g
     transform="matrix(0.08,0,0,-0.08,64.671248,7.1796965)"
     id="g58">
    <defs
       id="defs50">
      <path
         id="CMR17-39"
         d="M 2253,1864 C 2253,464 1670,31 1190,31 c -147,0 -505,0 -652,263 166,-26 288,63 288,224 0,174 -141,231 -231,231 -57,0 -230,-26 -230,-243 0,-435 377,-634 838,-634 736,0 1485,802 1485,2201 0,1744 -717,2106 -1203,2106 -634,0 -1242,-551 -1242,-1401 0,-787 519,-1370 1171,-1370 538,0 775,495 839,704 z m -826,-354 c -173,0 -416,32 -614,412 -135,247 -135,539 -135,849 0,375 0,634 180,913 89,133 256,348 627,348 755,0 755,-1147 755,-1400 0,-450 -205,-1122 -813,-1122 z"
         transform="scale(0.015625)" />
    </defs>
    <use
       xlink:href="#CMR17-39"
       transform="scale(0.996264)"
       id="use52" />
    <use
       xlink:href="#CMR17-30"
       transform="matrix(0.996264,0,0,0.996264,45.690477,0)"
       id="use54" />
    <use
       xlink:href="#SFRM3583-b0"
       transform="matrix(0.356961,0,0,0.356961,91.380954,0)"
       id="use56" />
  </g>
  <path
     d="M 69.316851,78.08 40.781877,49.545026"
     clip-path="url(#pd8b268611b)"
     style="fill:none;stroke:#b0b0b0;stroke-width:0.8;stroke-linecap:square"
     id="path62"
     transform="translate(0.99960863,-18.538283)" />
  <g
     transform="matrix(0.08,0,0,-0.08,24.119687,23.099775)"
     id="g77">
    <defs
       id="defs67">
      <path
         id="CMR17-31"
         d="m 1702,4058 c 0,134 -6,134 -96,134 -249,-276 -627,-365 -985,-365 -19,0 -51,0 -58,-19 -6,-13 -6,-26 -6,-160 198,0 531,38 787,191 V 461 C 1344,236 1331,160 781,160 H 589 V 0 c 307,0 627,0 934,0 307,0 627,0 935,0 v 160 h -192 c -551,0 -564,70 -564,298 z"
         transform="scale(0.015625)" />
      <path
         id="CMR17-33"
         d="m 1414,2157 c 570,0 820,-495 820,-1067 C 2234,320 1824,25 1453,25 1114,25 563,194 390,693 c 32,-13 64,-13 96,-13 154,0 269,102 269,268 0,185 -141,268 -269,268 -108,0 -275,-51 -275,-290 0,-591 576,-1054 1255,-1054 710,0 1254,558 1254,1213 0,622 -512,1072 -1120,1142 486,101 954,529 954,1102 0,491 -506,850 -1082,850 -582,0 -1094,-350 -1094,-850 0,-219 166,-257 249,-257 135,0 250,83 250,249 0,165 -115,248 -250,248 -25,0 -57,0 -83,-12 186,402 691,475 915,475 224,0 647,-107 647,-712 0,-177 -26,-492 -244,-770 -192,-246 -409,-246 -620,-266 -32,0 -180,-15 -205,-15 -45,-6 -71,-12 -71,-61 0,-45 7,-51 135,-51 z"
         transform="scale(0.015625)" />
    </defs>
    <use
       xlink:href="#CMR17-31"
       transform="scale(0.996264)"
       id="use69" />
    <use
       xlink:href="#CMR17-33"
       transform="matrix(0.996264,0,0,0.996264,45.690477,0)"
       id="use71" />
    <use
       xlink:href="#CMR17-35"
       transform="matrix(0.996264,0,0,0.996264,91.380954,0)"
       id="use73" />
    <use
       xlink:href="#SFRM3583-b0"
       transform="matrix(0.356961,0,0,0.356961,137.07143,0)"
       id="use75" />
  </g>
  <path
     d="M 69.316851,78.08 H 28.962304"
     clip-path="url(#pd8b268611b)"
     style="fill:none;stroke:#b0b0b0;stroke-width:0.8;stroke-linecap:square"
     id="path81"
     transform="translate(0.99960863,-18.538283)" />
  <g
     transform="matrix(0.08,0,0,-0.08,8.1996086,61.534244)"
     id="g95">
    <defs
       id="defs85">
      <path
         id="CMR17-38"
         d="m 1741,2264 c 403,203 813,509 813,999 0,578 -564,916 -1082,916 -582,0 -1094,-420 -1094,-999 0,-159 38,-433 288,-675 64,-63 332,-254 505,-375 C 883,1983 211,1634 211,934 211,279 838,-128 1459,-128 c 685,0 1261,490 1261,1138 0,580 -390,847 -646,1019 z m -839,558 c -51,32 -307,229 -307,529 0,388 403,681 864,681 506,0 877,-356 877,-770 0,-593 -666,-931 -698,-931 -6,0 -12,0 -64,39 z M 2080,1519 c 96,-70 403,-279 403,-668 C 2483,381 2010,25 1472,25 890,25 448,438 448,940 c 0,503 390,922 832,1120 z"
         transform="scale(0.015625)" />
    </defs>
    <use
       xlink:href="#CMR17-31"
       transform="scale(0.996264)"
       id="use87" />
    <use
       xlink:href="#CMR17-38"
       transform="matrix(0.996264,0,0,0.996264,45.690477,0)"
       id="use89" />
    <use
       xlink:href="#CMR17-30"
       transform="matrix(0.996264,0,0,0.996264,91.380954,0)"
       id="use91" />
    <use
       xlink:href="#SFRM3583-b0"
       transform="matrix(0.356961,0,0,0.356961,137.07143,0)"
       id="use93" />
  </g>
  <path
     d="M 69.316851,78.08 40.781877,106.61497"
     clip-path="url(#pd8b268611b)"
     style="fill:none;stroke:#b0b0b0;stroke-width:0.8;stroke-linecap:square"
     id="path99"
     transform="translate(0.99960863,-18.538283)" />
  <g
     transform="matrix(0.08,0,0,-0.08,24.119687,99.968716)"
     id="g113">
    <defs
       id="defs103">
      <path
         id="CMR17-32"
         d="M 2669,989 H 2554 C 2490,536 2438,459 2413,420 2381,369 1920,369 1830,369 H 602 c 230,250 678,703 1222,1228 390,370 845,805 845,1438 0,755 -602,1189 -1274,1189 -704,0 -1133,-620 -1133,-1194 0,-250 186,-282 263,-282 64,0 256,39 256,262 0,197 -167,254 -256,254 -39,0 -77,-6 -103,-19 122,545 493,813 884,813 556,0 921,-441 921,-1023 0,-556 -326,-1035 -691,-1451 L 262,146 V 0 h 2253 z"
         transform="scale(0.015625)" />
    </defs>
    <use
       xlink:href="#CMR17-32"
       transform="scale(0.996264)"
       id="use105" />
    <use
       xlink:href="#CMR17-32"
       transform="matrix(0.996264,0,0,0.996264,45.690477,0)"
       id="use107" />
    <use
       xlink:href="#CMR17-35"
       transform="matrix(0.996264,0,0,0.996264,91.380954,0)"
       id="use109" />
    <use
       xlink:href="#SFRM3583-b0"
       transform="matrix(0.356961,0,0,0.356961,137.07143,0)"
       id="use111" />
  </g>
  <path
     d="m 69.316851,78.08 v 40.35455"
     clip-path="url(#pd8b268611b)"
     style="fill:none;stroke:#b0b0b0;stroke-width:0.8;stroke-linecap:square"
     id="path117"
     transform="translate(0.99960863,-18.538283)" />
  <g
     transform="matrix(0.08,0,0,-0.08,62.554157,115.8888)"
     id="g131">
    <defs
       id="defs121">
      <path
         id="CMR17-37"
         d="m 2886,3941 v 140 H 1382 c -748,0 -761,84 -787,207 H 480 L 294,3094 h 116 c 19,121 64,446 140,567 39,51 512,51 621,51 H 2579 L 1869,2661 C 1395,1954 1069,999 1069,165 c 0,-76 0,-293 230,-293 231,0 231,217 231,299 v 294 c 0,1043 179,1731 473,2171 z"
         transform="scale(0.015625)" />
    </defs>
    <use
       xlink:href="#CMR17-32"
       transform="scale(0.996264)"
       id="use123" />
    <use
       xlink:href="#CMR17-37"
       transform="matrix(0.996264,0,0,0.996264,45.690477,0)"
       id="use125" />
    <use
       xlink:href="#CMR17-30"
       transform="matrix(0.996264,0,0,0.996264,91.380954,0)"
       id="use127" />
    <use
       xlink:href="#SFRM3583-b0"
       transform="matrix(0.356961,0,0,0.356961,137.07143,0)"
       id="use129" />
  </g>
  <path
     d="m 69.316851,78.08 28.534975,28.53497"
     clip-path="url(#pd8b268611b)"
     style="fill:none;stroke:#b0b0b0;stroke-width:0.8;stroke-linecap:square"
     id="path135"
     transform="translate(0.99960863,-18.538283)" />
  <g
     transform="matrix(0.08,0,0,-0.08,100.98863,99.968716)"
     id="g146">
    <use
       xlink:href="#CMR17-33"
       transform="scale(0.996264)"
       id="use138" />
    <use
       xlink:href="#CMR17-31"
       transform="matrix(0.996264,0,0,0.996264,45.690477,0)"
       id="use140" />
    <use
       xlink:href="#CMR17-35"
       transform="matrix(0.996264,0,0,0.996264,91.380954,0)"
       id="use142" />
    <use
       xlink:href="#SFRM3583-b0"
       transform="matrix(0.356961,0,0,0.356961,137.07143,0)"
       id="use144" />
  </g>
  <path
     d="m 88.418589,78.08 0.288114,-1.526014 0.04627,-1.364864 -0.179986,-1.223221 -0.377259,-1.050577 -0.569405,-0.911882 -0.695221,-0.706092 -0.93051,-0.624506 -1.495247,-0.695933 -1.328179,-0.692935 -0.572482,-0.542823 -0.445874,-0.752271 -1.48557,-3.037569 -0.703832,-0.693959 -0.765534,-0.434756 -0.882723,-0.231149 -1.184395,-0.05891 -2.079463,-0.08538 -1.741576,-0.167079 -0.735819,0.201879 -0.697515,0.424587 -0.785236,0.759314 -0.98029,1.305536 -0.903531,1.124866 -0.37387,0.136532 L 68.521888,67.097232 68.128128,66.655 67.44509,65.495675 64.056347,59.314902 62.453964,56.95822 60.835908,54.97973 59.449882,53.609234 58.091474,52.580475 56.942163,51.995489 56.0145,51.768657 l -0.716471,0.03435 -0.610279,0.250838 -0.490028,0.461116 -0.358679,0.660178 -0.23958,0.977424 -0.05377,1.184939 0.15655,1.532378 0.419611,1.872965 0.775958,2.346843 1.125647,2.654842 1.627762,3.241966 2.660192,5.218456 -0.0011,0.471912 -0.218279,0.255993 -0.477856,0.164914 -1.247529,0.12061 -2.751666,0.266395 -1.544815,0.372671 -1.180491,0.496414 -0.940048,0.638819 -0.693454,0.748055 -0.54571,0.933713 -0.446102,1.225985 -0.314692,1.520268 -0.07439,1.426253 0.156638,1.226775 0.353278,1.057762 0.543508,0.923191 0.670572,0.720245 0.908911,0.641628 1.36293,0.656099 1.539923,0.771105 0.585912,0.53527 0.433251,0.69691 1.709567,3.343333 0.703559,0.610202 0.744187,0.366865 0.899883,0.194205 1.362249,0.03161 1.676702,0.08308 1.843265,0.168123 0.737684,-0.21957 0.697536,-0.442643 0.782214,-0.775638 1.013444,-1.367902 0.819918,-1.003864 0.373869,-0.136532 0.317566,0.135562 0.393759,0.442232 0.683041,1.159325 3.388742,6.180772 1.602383,2.356683 1.61806,1.978488 1.386026,1.3705 1.358409,1.02876 1.149301,0.58499 0.927676,0.22682 0.716464,-0.0344 0.610279,-0.25083 0.490028,-0.46112 0.358679,-0.66018 0.239586,-0.97743 0.05376,-1.18493 -0.156555,-1.532379 -0.419611,-1.872964 -0.77595,-2.346851 -1.125654,-2.654835 -1.627759,-3.241969 -2.660193,-5.218456 0.0011,-0.471909 0.218279,-0.255994 0.477858,-0.164916 1.247527,-0.120607 2.751666,-0.266395 1.544816,-0.372674 1.18049,-0.49641 0.940049,-0.638824 0.693453,-0.74805 0.545711,-0.933722 0.446102,-1.225981 0.03317,-0.119604 v 0"
     clip-path="url(#pd8b268611b)"
     style="fill:none;stroke:#1f77b4;stroke-width:1.5;stroke-linecap:square;stroke-opacity:0.7"
     id="path161"
     transform="translate(0.99960863,-18.538283)" />
  <path
     d="m 110.67101,59.541716 c 0,-5.299311 -1.04385,-10.547092 -3.07181,-15.443016 -2.02796,-4.895924 -5.00059,-9.34478 -8.747765,-13.091957 -3.747179,-3.747179 -8.196033,-6.719809 -13.091958,-8.747767 -4.895924,-2.027959 -10.143706,-3.071807 -15.443017,-3.071807 -5.29931,0 -10.547092,1.043849 -15.443016,3.071807 -4.895925,2.027958 -9.344779,5.000588 -13.091958,8.747767 -3.747178,3.747177 -6.719808,8.196033 -8.747766,13.091957 -2.027959,4.895924 -3.071807,10.143706 -3.071807,15.443016 0,5.299311 1.043848,10.547092 3.071807,15.443017 2.027958,4.895924 5.000588,9.344783 8.747766,13.091953 3.747179,3.74718 8.196033,6.71981 13.091958,8.74777 4.895924,2.027961 10.143706,3.07181 15.443016,3.07181 5.299311,0 10.547093,-1.04385 15.443017,-3.07181 4.895925,-2.02796 9.344779,-5.00059 13.091958,-8.74777 3.747175,-3.74717 6.719805,-8.196029 8.747765,-13.091953 2.02796,-4.895925 3.07181,-10.143706 3.07181,-15.443017"
     style="fill:none;stroke:#000000;stroke-width:0.8;stroke-linecap:square;stroke-linejoin:miter"
     id="path164" />
  <path
     d="m 236.67101,59.541716 c 0,-5.299311 -1.04385,-10.547092 -3.07181,-15.443016 -2.02796,-4.895924 -5.00059,-9.34478 -8.74776,-13.091957 -3.74718,-3.747179 -8.19604,-6.719809 -13.09196,-8.747767 -4.89593,-2.027959 -10.14371,-3.071807 -15.44302,-3.071807 -5.29931,0 -10.54709,1.043849 -15.44301,3.071807 -4.89593,2.027958 -9.34478,5.000588 -13.09196,8.747767 -3.74718,3.747177 -6.71981,8.196033 -8.74777,13.091957 -2.02796,4.895924 -3.07181,10.143706 -3.07181,15.443016 0,5.299311 1.04385,10.547092 3.07181,15.443017 2.02796,4.895924 5.00059,9.344783 8.74777,13.091953 3.74718,3.74718 8.19603,6.71981 13.09196,8.74777 4.89592,2.027961 10.1437,3.07181 15.44301,3.07181 5.29931,0 10.54709,-1.04385 15.44302,-3.07181 4.89592,-2.02796 9.34478,-5.00059 13.09196,-8.74777 3.74717,-3.74717 6.7198,-8.196029 8.74776,-13.091953 2.02796,-4.895925 3.07181,-10.143706 3.07181,-15.443017 m -40.35455,0 c 0,0 0,0 0,0 0,0 0,0 0,0 0,0 0,0 0,0 0,0 0,0 0,0 0,0 0,0 0,0 0,0 0,0 0,0 0,0 0,0 0,0 0,0 0,0 0,0 0,0 0,0 0,0 0,0 0,0 0,0 0,0 0,0 0,0 0,0 0,0 0,0 0,0 0,0 0,0 0,0 0,0 0,0 0,0 0,0 0,0 0,0 0,0 0,0 z"
     style="fill:#ffffff"
     id="path168" />
  <path
     d="M 195.31685,78.08 H 235.6714"
     clip-path="url(#p66fb0e3ec5)"
     style="fill:none;stroke:#b0b0b0;stroke-width:0.8;stroke-linecap:square"
     id="path171"
     transform="translate(0.99960863,-18.538283)" />
  <g
     transform="matrix(0.08,0,0,-0.08,247.14289,61.534244)"
     id="g178">
    <use
       xlink:href="#CMR17-30"
       transform="scale(0.996264)"
       id="use174" />
    <use
       xlink:href="#SFRM3583-b0"
       transform="matrix(0.356961,0,0,0.356961,45.690477,0)"
       id="use176" />
  </g>
  <path
     d="M 195.31685,78.08 223.85183,49.545026"
     clip-path="url(#p66fb0e3ec5)"
     style="fill:none;stroke:#b0b0b0;stroke-width:0.8;stroke-linecap:square"
     id="path182"
     transform="translate(0.99960863,-18.538283)" />
  <g
     transform="matrix(0.08,0,0,-0.08,229.10572,23.099775)"
     id="g191">
    <use
       xlink:href="#CMR17-34"
       transform="scale(0.996264)"
       id="use185" />
    <use
       xlink:href="#CMR17-35"
       transform="matrix(0.996264,0,0,0.996264,45.690477,0)"
       id="use187" />
    <use
       xlink:href="#SFRM3583-b0"
       transform="matrix(0.356961,0,0,0.356961,91.380954,0)"
       id="use189" />
  </g>
  <path
     d="M 195.31685,78.08 V 37.725452"
     clip-path="url(#p66fb0e3ec5)"
     style="fill:none;stroke:#b0b0b0;stroke-width:0.8;stroke-linecap:square"
     id="path195"
     transform="translate(0.99960863,-18.538283)" />
  <g
     transform="matrix(0.08,0,0,-0.08,190.67125,7.1796965)"
     id="g204">
    <use
       xlink:href="#CMR17-39"
       transform="scale(0.996264)"
       id="use198" />
    <use
       xlink:href="#CMR17-30"
       transform="matrix(0.996264,0,0,0.996264,45.690477,0)"
       id="use200" />
    <use
       xlink:href="#SFRM3583-b0"
       transform="matrix(0.356961,0,0,0.356961,91.380954,0)"
       id="use202" />
  </g>
  <path
     d="M 195.31685,78.08 166.78188,49.545026"
     clip-path="url(#p66fb0e3ec5)"
     style="fill:none;stroke:#b0b0b0;stroke-width:0.8;stroke-linecap:square"
     id="path208"
     transform="translate(0.99960863,-18.538283)" />
  <g
     transform="matrix(0.08,0,0,-0.08,150.11969,23.099775)"
     id="g219">
    <use
       xlink:href="#CMR17-31"
       transform="scale(0.996264)"
       id="use211" />
    <use
       xlink:href="#CMR17-33"
       transform="matrix(0.996264,0,0,0.996264,45.690477,0)"
       id="use213" />
    <use
       xlink:href="#CMR17-35"
       transform="matrix(0.996264,0,0,0.996264,91.380954,0)"
       id="use215" />
    <use
       xlink:href="#SFRM3583-b0"
       transform="matrix(0.356961,0,0,0.356961,137.07143,0)"
       id="use217" />
  </g>
  <path
     d="M 195.31685,78.08 H 154.9623"
     clip-path="url(#p66fb0e3ec5)"
     style="fill:none;stroke:#b0b0b0;stroke-width:0.8;stroke-linecap:square"
     id="path223"
     transform="translate(0.99960863,-18.538283)" />
  <g
     transform="matrix(0.08,0,0,-0.08,134.19961,61.534244)"
     id="g234">
    <use
       xlink:href="#CMR17-31"
       transform="scale(0.996264)"
       id="use226" />
    <use
       xlink:href="#CMR17-38"
       transform="matrix(0.996264,0,0,0.996264,45.690477,0)"
       id="use228" />
    <use
       xlink:href="#CMR17-30"
       transform="matrix(0.996264,0,0,0.996264,91.380954,0)"
       id="use230" />
    <use
       xlink:href="#SFRM3583-b0"
       transform="matrix(0.356961,0,0,0.356961,137.07143,0)"
       id="use232" />
  </g>
  <path
     d="m 195.31685,78.08 -28.53497,28.53497"
     clip-path="url(#p66fb0e3ec5)"
     style="fill:none;stroke:#b0b0b0;stroke-width:0.8;stroke-linecap:square"
     id="path238"
     transform="translate(0.99960863,-18.538283)" />
  <g
     transform="matrix(0.08,0,0,-0.08,150.11969,99.968716)"
     id="g249">
    <use
       xlink:href="#CMR17-32"
       transform="scale(0.996264)"
       id="use241" />
    <use
       xlink:href="#CMR17-32"
       transform="matrix(0.996264,0,0,0.996264,45.690477,0)"
       id="use243" />
    <use
       xlink:href="#CMR17-35"
       transform="matrix(0.996264,0,0,0.996264,91.380954,0)"
       id="use245" />
    <use
       xlink:href="#SFRM3583-b0"
       transform="matrix(0.356961,0,0,0.356961,137.07143,0)"
       id="use247" />
  </g>
  <path
     d="m 195.31685,78.08 v 40.35455"
     clip-path="url(#p66fb0e3ec5)"
     style="fill:none;stroke:#b0b0b0;stroke-width:0.8;stroke-linecap:square"
     id="path253"
     transform="translate(0.99960863,-18.538283)" />
  <g
     transform="matrix(0.08,0,0,-0.08,188.55416,115.8888)"
     id="g264">
    <use
       xlink:href="#CMR17-32"
       transform="scale(0.996264)"
       id="use256" />
    <use
       xlink:href="#CMR17-37"
       transform="matrix(0.996264,0,0,0.996264,45.690477,0)"
       id="use258" />
    <use
       xlink:href="#CMR17-30"
       transform="matrix(0.996264,0,0,0.996264,91.380954,0)"
       id="use260" />
    <use
       xlink:href="#SFRM3583-b0"
       transform="matrix(0.356961,0,0,0.356961,137.07143,0)"
       id="use262" />
  </g>
  <path
     d="m 195.31685,78.08 28.53498,28.53497"
     clip-path="url(#p66fb0e3ec5)"
     style="fill:none;stroke:#b0b0b0;stroke-width:0.8;stroke-linecap:square"
     id="path268"
     transform="translate(0.99960863,-18.538283)" />
  <g
     transform="matrix(0.08,0,0,-0.08,226.98863,99.968716)"
     id="g279">
    <use
       xlink:href="#CMR17-33"
       transform="scale(0.996264)"
       id="use271" />
    <use
       xlink:href="#CMR17-31"
       transform="matrix(0.996264,0,0,0.996264,45.690477,0)"
       id="use273" />
    <use
       xlink:href="#CMR17-35"
       transform="matrix(0.996264,0,0,0.996264,91.380954,0)"
       id="use275" />
    <use
       xlink:href="#SFRM3583-b0"
       transform="matrix(0.356961,0,0,0.356961,137.07143,0)"
       id="use277" />
  </g>
  <path
     d="m 209.45057,78.08 0.19187,-2.13075 -0.24625,-0.555028 -0.48746,-0.532215 -0.85535,-0.569251 -1.18657,-0.78571 -0.20407,-0.379227 0.0129,-0.43652 0.26921,-0.628397 0.76758,-1.10493 5.24846,-6.922746 1.23346,-2.180994 0.75756,-1.753863 0.4134,-1.448704 0.1294,-1.26315 -0.13263,-0.92512 -0.30539,-0.63257 -0.47438,-0.451835 -0.63112,-0.261302 -0.77146,-0.0664 -1.02765,0.16053 -1.30032,0.466327 -1.5586,0.83078 -1.75974,1.207061 -2.00376,1.647904 -2.63731,2.485159 -2.82269,2.628571 -1.09901,0.724376 -0.84301,0.303141 -0.66001,0.01855 -0.57846,-0.212487 -0.57229,-0.469659 -0.82086,-1.020115 -1.73566,-2.207201 -1.03318,-0.945136 -1.03314,-0.653725 -1.05769,-0.405318 -0.98342,-0.148779 -0.88027,0.07689 -0.81419,0.292594 -0.77663,0.529934 -0.79978,0.844461 -0.96533,1.382584 -1.85587,3.130022 -1.70678,3.151019 -0.85638,0.682095 -1.53894,1.188242 -0.43815,0.650684 -0.1731,0.643735 0.0361,0.707012 0.28551,0.867393 0.62685,1.105011 1.2896,2.157026 0.1282,0.722477 -0.0915,0.844381 -0.18293,1.459475 0.15902,0.619214 0.35605,0.526206 0.63139,0.524183 1.85036,1.354272 0.0476,0.406042 -0.16422,0.521237 -0.5098,0.833496 -1.42133,1.803092 -2.89963,3.695721 -1.54058,2.308102 -1.09724,1.997715 -0.72846,1.742378 -0.38292,1.430915 -0.10064,1.112618 0.13263,0.925117 0.30539,0.63258 0.47437,0.45183 0.63112,0.2613 0.77147,0.0664 1.02765,-0.16054 1.30032,-0.46632 1.5586,-0.830785 1.75973,-1.207063 2.00376,-1.647906 2.63732,-2.485159 2.82269,-2.628571 1.099,-0.724377 0.84301,-0.303142 0.66001,-0.01855 0.57847,0.212487 0.57228,0.46966 0.82086,1.020114 1.73567,2.207201 1.03318,0.945135 1.03313,0.653726 1.05769,0.405316 0.98343,0.148779 0.88026,-0.07689 0.8142,-0.292596 0.77662,-0.52993 0.79979,-0.844466 0.96533,-1.382582 1.85586,-3.130019 1.70678,-3.151022 0.85638,-0.682095 1.53894,-1.188242 0.43815,-0.650688 0.1731,-0.643728 -0.0361,-0.707016 -0.28552,-0.867392 -0.62685,-1.105011 -1.2896,-2.157023 -0.1282,-0.722477 0.0249,-0.443175 v 0"
     clip-path="url(#p66fb0e3ec5)"
     style="fill:none;stroke:#1f77b4;stroke-width:1.5;stroke-linecap:square;stroke-opacity:0.7"
     id="path294"
     transform="translate(0.99960863,-18.538283)" />
  <path
     d="m 236.67101,59.541716 c 0,-5.299311 -1.04385,-10.547092 -3.07181,-15.443016 -2.02796,-4.895924 -5.00059,-9.34478 -8.74776,-13.091957 -3.74718,-3.747179 -8.19604,-6.719809 -13.09196,-8.747767 -4.89593,-2.027959 -10.14371,-3.071807 -15.44302,-3.071807 -5.29931,0 -10.54709,1.043849 -15.44301,3.071807 -4.89593,2.027958 -9.34478,5.000588 -13.09196,8.747767 -3.74718,3.747177 -6.71981,8.196033 -8.74777,13.091957 -2.02796,4.895924 -3.07181,10.143706 -3.07181,15.443016 0,5.299311 1.04385,10.547092 3.07181,15.443017 2.02796,4.895924 5.00059,9.344783 8.74777,13.091953 3.74718,3.74718 8.19603,6.71981 13.09196,8.74777 4.89592,2.027961 10.1437,3.07181 15.44301,3.07181 5.29931,0 10.54709,-1.04385 15.44302,-3.07181 4.89592,-2.02796 9.34478,-5.00059 13.09196,-8.74777 3.74717,-3.74717 6.7198,-8.196029 8.74776,-13.091953 2.02796,-4.895925 3.07181,-10.143706 3.07181,-15.443017"
     style="fill:none;stroke:#000000;stroke-width:0.8;stroke-linecap:square;stroke-linejoin:miter"
     id="path297" />
  <defs
     id="defs347">
    <clipPath
       id="pd8b268611b">
      <path
         d="m 109.6714,78.08 c 0,-5.299311 -1.04385,-10.547092 -3.07181,-15.443017 -2.02796,-4.895924 -5.00059,-9.344779 -8.747764,-13.091957 -3.747179,-3.747179 -8.196033,-6.719808 -13.091958,-8.747767 -4.895924,-2.027958 -10.143706,-3.071807 -15.443017,-3.071807 -5.29931,0 -10.547092,1.043849 -15.443016,3.071807 -4.895925,2.027959 -9.344779,5.000588 -13.091958,8.747767 -3.747178,3.747178 -6.719808,8.196033 -8.747766,13.091957 -2.027959,4.895925 -3.071807,10.143706 -3.071807,15.443017 0,5.299311 1.043848,10.547092 3.071807,15.443017 2.027958,4.895924 5.000588,9.344783 8.747766,13.091953 3.747179,3.74718 8.196033,6.71981 13.091958,8.74777 4.895924,2.02796 10.143706,3.07181 15.443016,3.07181 5.299311,0 10.547093,-1.04385 15.443017,-3.07181 4.895925,-2.02796 9.344779,-5.00059 13.091958,-8.74777 3.747174,-3.74717 6.719804,-8.196029 8.747764,-13.091953 2.02796,-4.895925 3.07181,-10.143706 3.07181,-15.443017 m -40.354549,0 c 0,0 0,0 0,0 0,0 0,0 0,0 0,0 0,0 0,0 0,0 0,0 0,0 0,0 0,0 0,0 0,0 0,0 0,0 0,0 0,0 0,0 0,0 0,0 0,0 0,0 0,0 0,0 0,0 0,0 0,0 0,0 0,0 0,0 0,0 0,0 0,0 0,0 0,0 0,0 0,0 0,0 0,0 0,0 0,0 0,0 0,0 0,0 0,0 z"
         id="path341" />
    </clipPath>
    <clipPath
       id="p66fb0e3ec5">
      <path
         d="m 235.6714,78.08 c 0,-5.299311 -1.04385,-10.547092 -3.07181,-15.443017 -2.02796,-4.895924 -5.00059,-9.344779 -8.74776,-13.091957 -3.74718,-3.747179 -8.19604,-6.719808 -13.09196,-8.747767 -4.89593,-2.027958 -10.14371,-3.071807 -15.44302,-3.071807 -5.29931,0 -10.54709,1.043849 -15.44301,3.071807 -4.89593,2.027959 -9.34478,5.000588 -13.09196,8.747767 -3.74718,3.747178 -6.71981,8.196033 -8.74777,13.091957 -2.02796,4.895925 -3.07181,10.143706 -3.07181,15.443017 0,5.299311 1.04385,10.547092 3.07181,15.443017 2.02796,4.895924 5.00059,9.344783 8.74777,13.091953 3.74718,3.74718 8.19603,6.71981 13.09196,8.74777 4.89592,2.02796 10.1437,3.07181 15.44301,3.07181 5.29931,0 10.54709,-1.04385 15.44302,-3.07181 4.89592,-2.02796 9.34478,-5.00059 13.09196,-8.74777 3.74717,-3.74717 6.7198,-8.196029 8.74776,-13.091953 2.02796,-4.895925 3.07181,-10.143706 3.07181,-15.443017 m -40.35455,0 c 0,0 0,0 0,0 0,0 0,0 0,0 0,0 0,0 0,0 0,0 0,0 0,0 0,0 0,0 0,0 0,0 0,0 0,0 0,0 0,0 0,0 0,0 0,0 0,0 0,0 0,0 0,0 0,0 0,0 0,0 0,0 0,0 0,0 0,0 0,0 0,0 0,0 0,0 0,0 0,0 0,0 0,0 0,0 0,0 0,0 0,0 0,0 0,0 z"
         id="path344" />
    </clipPath>
  </defs>
</svg>
